<svg width="101" height="132" viewBox="0 0 101 132" fill="none" xmlns="http://www.w3.org/2000/svg">
<rect x="0.900024" width="99.2" height="131.2" rx="6.4" fill="#F4F4F9"/>
<rect x="38.6951" y="34.1816" width="38.4" height="6.4" rx="3.2" fill="#D6D6E2"/>
<path d="M20.3347 33.9461C20.4897 33.5636 20.7169 33.2161 21.0032 32.9234C21.2896 32.6306 21.6295 32.3984 22.0036 32.24C22.3778 32.0816 22.7788 32 23.1837 32C23.5887 32 23.9897 32.0816 24.3638 32.24C24.7379 32.3984 25.0779 32.6306 25.3642 32.9234L26.2674 33.8467L27.1706 32.9234C27.7489 32.3322 28.5332 32 29.3511 32C30.1689 32 30.9533 32.3322 31.5316 32.9234C32.1099 33.5146 32.4348 34.3164 32.4348 35.1525C32.4348 35.9886 32.1099 36.7905 31.5316 37.3817L26.2674 42.7633L21.0032 37.3817C20.7169 37.0889 20.4897 36.7414 20.3347 36.3589C20.1798 35.9764 20.1 35.5665 20.1 35.1525C20.1 34.7385 20.1798 34.3286 20.3347 33.9461Z" fill="#E5646E" stroke="#E5646E" stroke-width="1.44" stroke-linecap="round" stroke-linejoin="round"/>
<rect x="38.6951" y="64.1449" width="38.4" height="6.4" rx="3.2" fill="#D6D6E2"/>
<path d="M20.3347 63.9094C20.4897 63.5269 20.7169 63.1794 21.0032 62.8866C21.2896 62.5939 21.6295 62.3617 22.0036 62.2033C22.3778 62.0448 22.7788 61.9633 23.1837 61.9633C23.5887 61.9633 23.9897 62.0448 24.3638 62.2033C24.7379 62.3617 25.0779 62.5939 25.3642 62.8866L26.2674 63.81L27.1706 62.8866C27.7489 62.2954 28.5332 61.9633 29.3511 61.9633C30.1689 61.9633 30.9533 62.2954 31.5316 62.8866C32.1099 63.4778 32.4348 64.2797 32.4348 65.1158C32.4348 65.9519 32.1099 66.7537 31.5316 67.3449L26.2674 72.7266L21.0032 67.3449C20.7169 67.0522 20.4897 66.7047 20.3347 66.3222C20.1798 65.9397 20.1 65.5298 20.1 65.1158C20.1 64.7018 20.1798 64.2919 20.3347 63.9094Z" fill="#E5646E" stroke="#E5646E" stroke-width="1.44" stroke-linecap="round" stroke-linejoin="round"/>
<rect x="38.6951" y="94.1082" width="38.4" height="6.4" rx="3.2" fill="#D6D6E2"/>
<path d="M20.3347 93.8727C20.4897 93.4902 20.7169 93.1427 21.0032 92.8499C21.2896 92.5572 21.6295 92.325 22.0036 92.1666C22.3778 92.0081 22.7788 91.9266 23.1837 91.9266C23.5887 91.9266 23.9897 92.0081 24.3638 92.1666C24.7379 92.325 25.0779 92.5572 25.3642 92.8499L26.2674 93.7733L27.1706 92.8499C27.7489 92.2587 28.5332 91.9266 29.3511 91.9266C30.1689 91.9266 30.9533 92.2587 31.5316 92.8499C32.1099 93.4412 32.4348 94.243 32.4348 95.0791C32.4348 95.9152 32.1099 96.717 31.5316 97.3082L26.2674 102.69L21.0032 97.3082C20.7169 97.0155 20.4897 96.668 20.3347 96.2855C20.1798 95.903 20.1 95.4931 20.1 95.0791C20.1 94.6651 20.1798 94.2552 20.3347 93.8727Z" fill="#E5646E" stroke="#E5646E" stroke-width="1.44" stroke-linecap="round" stroke-linejoin="round"/>
</svg>
